<svg id="Capa_1" enable-background="new 0 0 512 512" height="512" viewBox="0 0 512 512" width="512" xmlns="http://www.w3.org/2000/svg"><g><path d="m248.581 368.182-.928 14.968c5.203.322 10.486.328 15.692.019l-.891-14.97c-4.593.273-9.291.267-13.873-.017z"/><path d="m248.15 157.512h15.012v14.996h-15.012z"/><path d="m290.692 189.724-10.014-11.173c-13.658 12.644-36.386 12.643-50.044 0l-10.014 11.173c19.13 17.707 50.943 17.706 70.072 0z"/><path d="m323.21 285.961v-41.027c0-14.608-11.897-26.493-26.521-26.493-17.588-1.818-32.989 7.818-33.461 26.493 0 6.339-5.163 11.496-11.509 11.496h-6.347c8.785-16.799-4.57-38.46-23.677-37.989h-33.793v14.996h33.794c6.276 0 11.381 5.1 11.381 11.369s-5.106 11.369-11.381 11.369h-9.84v14.996h6.328c19.638.516 19.634 29.24 0 29.753h-30.282v14.996h30.282c22.334.605 37.426-25.509 26.067-44.493 18.013 1.74 33.3-7.266 33.99-26.493 0-6.339 5.163-11.497 11.509-11.497h6.94c6.346 0 11.509 5.157 11.509 11.497v41.027c-.517 19.719-29.439 19.739-29.959 0h-15.012c1.044 39.516 58.951 39.487 59.982 0z"/><path d="m447.968 277.011 21.104-21.08-20.833-20.811c9.557-12.047 25.513-56.197 32.133-70.564-16.283-6.114-57.652-26.288-74.595-28.021v-29.663h-27.973c-1.288-17.834-21.546-59.438-27.806-76.451-16.287 7.386-59.747 22.171-73.264 33.379l-21.078-21.056-21.516 21.493c-11.902-9.342-56.161-25.369-70.335-31.882-6.122 16.268-26.316 57.59-28.051 74.517h-29.317v26.985c-9.283 1.204-18.406 3.794-27.087 7.513l5.702 13.872c6.867-2.949 14.068-5.119 21.385-6.237-.703 17.015 2.442 34.307 10.766 49.177-16.405 4.117-31.316 13.346-43.1 25.921-8.057-10.304-19.13-42.127-24.587-54.293l20.184-8.275-5.7-13.873-34.072 13.967c7.401 16.285 22.194 59.692 33.432 73.205l-21.12 21.097 21.67 21.646c-9.854 12.268-25.685 56.338-32.448 71.003 16.494 6.19 57.782 26.396 74.975 28.079v29.231h27.168c1.433 17.198 21.604 58.991 27.673 75.465 16.269-7.378 59.732-22.17 73.235-33.359l21.143 21.12 20.989-20.966c12.433 10.048 56.495 25.777 71.382 32.631 6.197-16.474 26.425-57.719 28.11-74.891h29.64v-28.097c17.233-1.428 59.065-21.579 75.57-27.646-7.379-16.237-22.192-59.657-33.379-73.136zm-24.762-120.074 37.525 15.671c-4.888 10.755-16.571 42.492-23.296 51.721-11.644-12.458-26.337-21.714-42.538-25.929 7.855-14.138 11.417-30.421 10.88-46.648 5.948 1.103 11.785 2.828 17.429 5.185zm-32.441-.862c0 14.288-4.035 27.842-11.71 39.616-3.494-.316-7.586-.319-11.132-.301-11.829-21.801-29.837-39.79-51.662-51.606.008-3.022.025-6.73-.197-9.707 20.112-15.32 50.921-12.038 74.701-12.209zm-86.582-90.663 37.628-15.425c4.931 13.194 19.375 43.111 20.83 56.884-17.034-.674-34.258 2.765-49.054 11.183-4.077-16.572-13.384-31.632-26.097-43.513 5.182-3.632 10.765-6.699 16.693-9.129zm-24.313 22.728c13.114 13.099 20.608 30.308 21.31 48.718-27.985-11.109-63.063-11.108-91.048 0 .121-32.444 24.5-52.052 45.524-72.906zm-123.69 1.319 15.687-37.484c10.558 4.784 42.391 16.534 51.462 23.062-12.401 11.676-21.394 26.422-25.483 42.59-14.21-7.842-30.576-11.318-46.858-10.755 1.105-5.942 2.831-11.774 5.192-17.413zm-34.73 66.616v-34.208c23.213.172 54.147-3.026 73.84 11.657-.259 3.176-.251 7.037-.238 10.259-21.825 11.816-39.833 29.805-51.662 51.606-3.235-.013-7.083-.021-10.271.238-7.648-11.759-11.669-25.289-11.669-39.552zm-33.764 75.668c13.113-13.1 30.34-20.586 48.769-21.287-11.118 28.01-11.131 62.864.003 90.951-32.48-.119-52.111-24.473-72.988-45.476zm.942 124.457-37.525-15.671c5.028-11.053 16.598-42.708 23.599-52.172 11.767 12.443 26.638 21.411 42.931 25.441-8.154 14.398-11.779 31.07-11.195 47.656-6.078-1.098-12.044-2.846-17.81-5.254zm32.822.488c0-14.609 4.207-28.457 12.222-40.413 2.97.222 6.697.206 9.711.197 11.757 21.729 29.679 39.802 51.668 51.672-.019 3.534-.013 7.571.301 11.054-19.775 14.745-50.629 11.518-73.903 11.698v-34.208zm85.643 89.677-37.627 15.425c-4.741-12.67-19.108-42.739-20.668-55.898 17.059.699 34.381-2.509 49.265-10.869 4.2 16.059 13.328 30.659 25.696 42.233-5.174 3.623-10.748 6.683-16.666 9.109zm24.35-22.643c-13.102-13.088-20.596-30.279-21.309-48.671 6.837 2.604 13.972 4.647 21.359 6.061l2.826-14.727c-132.35-27.46-113.982-220.908 21.34-222.923 135.488 2.04 153.64 195.838 21.065 222.974l2.791 14.734c7.495-1.417 14.734-3.476 21.664-6.113-.141 32.413-24.517 52.015-45.523 72.854zm124.212-.044-15.687 37.484c-11.269-5.118-42.906-16.598-52.539-23.784 12.527-11.701 21.767-26.487 25.934-42.77 14.298 8.203 30.828 11.834 47.552 11.282-1.1 6.072-2.85 12.029-5.26 17.788zm35.11-32.783c-23.785-.154-54.687 3.085-74.764-12.264.276-3.268.275-7.161.26-10.477 22.002-11.868 39.928-29.943 51.683-51.683 3.352.009 7.244.029 10.561-.25 15.376 20.111 12.092 50.89 12.26 74.674zm33.367-33.503c-5.944 2.437-12.092 4.175-18.355 5.226.662-17.192-2.769-34.358-11.297-49.059 5.638-1.48 11.123-3.511 16.335-6.068l-6.619-13.46c-9.081 4.455-19.166 6.983-29.335 7.383 11.123-28.082 11.114-62.95-.005-90.957 32.479.12 52.108 24.474 72.985 45.476-5.178 4.927-25.872 26.549-31.261 30.387l9.183 11.863c4.027-3.052 7.894-6.809 11.45-10.427 8.021 10.26 19.112 42.096 24.546 54.214z"/><path d="m496.988 0h15.012v14.996h-15.012z"/><path d="m466.964 29.853h-15.012v14.997h-15.012v14.996h15.012v14.995h15.012v-14.995h15.012v-14.996h-15.012z"/><path d="m496.988 89.976h15.012v14.996h-15.012z"/><path d="m0 497.004h15.012v14.996h-15.012z"/><path d="m60.048 437.159h-15.012v14.996h-15.012v14.996h15.012v14.996h15.012v-14.996h15.012v-14.996h-15.012z"/><path d="m0 407.029h15.012v14.996h-15.012z"/><path d="m248.15 90.976h15.012v14.996h-15.012z"/><path d="m423.061 177.639h14.659v14.999h-14.659z" transform="matrix(.926 -.377 .377 .926 -38.038 175.797)"/><path d="m147.528 354.33-10.451 10.439 10.614 10.604 10.451-10.439z"/></g></svg>